<svg width="416.0575317382812px" height="120.8099884033203px" xmlns="http://www.w3.org/2000/svg" viewBox="41.971234130859386 14.595005798339848 416.0575317382812 120.8099884033203" style="background: rgba(0, 0, 0, 0);" preserveAspectRatio="xMidYMid"><defs><filter id="editing-extrusion" x="-100%" y="-100%" width="300%" height="300%"><feFlood result="color1" flood-color="#444"></feFlood><feConvolveMatrix order="8,8" divisor="1" kernelMatrix="1 0 0 0 0 0 0 0 0 1 0 0 0 0 0 0 0 0 1 0 0 0 0 0 0 0 0 1 0 0 0 0 0 0 0 0 1 0 0 0 0 0 0 0 0 1 0 0 0 0 0 0 0 0 1 0 0 0 0 0 0 0 0 1" in="SourceAlpha" result="extrude"></feConvolveMatrix><feComposite in="color1" in2="extrude" result="comp-extrude" operator="in"></feComposite><feOffset dx="4" dy="4" in="comp-extrude" result="offset-extrude"></feOffset><feMerge><feMergeNode in="offset-extrude"></feMergeNode><feMergeNode in="SourceGraphic"></feMergeNode></feMerge></filter></defs><g filter="url(#editing-extrusion)"><g transform="translate(103.67437744140625, 98.68000030517578)"><path d="M7.17 0L10.88-18.82L10.88-18.82Q9.02-36.16 2.50-39.87L2.50-39.87L2.50-39.87Q3.84-41.54 6.02-42.46L6.02-42.46L6.02-42.46Q8.19-43.39 10.82-43.39L10.82-43.39L10.82-43.39Q13.44-43.39 15.42-42.46L15.42-42.46L15.42-42.46Q17.41-41.54 18.69-39.55L18.69-39.55L18.69-39.55Q21.12-35.78 21.12-26.75L21.12-26.75L21.12-22.14L21.12-22.14Q24.96-33.41 28.80-38.27L28.80-38.27L28.80-38.27Q32.70-43.26 37.57-43.26L37.57-43.26L37.57-43.26Q39.49-43.26 40.77-42.27L40.77-42.27L40.77-42.27Q42.05-41.28 42.69-39.81L42.69-39.81L42.69-39.81Q37.76-37.63 33.02-31.36L33.02-31.36L33.02-31.36Q28.29-25.09 25.22-16.32L25.22-16.32L21.44 0L7.17 0ZM50.05 1.28L50.05 1.28L50.05 1.28Q35.97 1.28 35.97-11.97L35.97-11.97L35.97-11.97Q35.97-21.38 41.15-27.46L41.15-27.46L41.15-27.46Q46.66-33.92 56.19-33.92L56.19-33.92L56.19-33.92Q63.10-33.92 66.62-30.72L66.62-30.72L66.62-30.72Q70.14-27.52 70.14-20.80L70.14-20.80L70.14-20.80Q70.14-10.56 64.64-4.61L64.64-4.61L64.64-4.61Q59.26 1.28 50.05 1.28ZM51.71-26.56L51.71-26.56L51.71-26.56Q50.94-24.83 50.34-22.24L50.34-22.24L50.34-22.24Q49.73-19.65 48.96-15.55L48.96-15.55L48.96-15.55Q48.19-11.46 48.19-6.40L48.19-6.40L48.19-6.40Q48.19-4.74 48.74-3.65L48.74-3.65L48.74-3.65Q49.28-2.56 50.75-2.56L50.75-2.56L50.75-2.56Q52.22-2.56 53.15-3.26L53.15-3.26L53.15-3.26Q54.08-3.97 54.78-5.63L54.78-5.63L54.78-5.63Q56.06-8.58 57.09-14.05L57.09-14.05L57.09-14.05Q58.11-19.52 58.21-21.89L58.21-21.89L58.21-21.89Q58.30-24.26 58.30-26.02L58.30-26.02L58.30-26.02Q58.30-27.78 57.79-28.93L57.79-28.93L57.79-28.93Q57.28-30.08 55.84-30.08L55.84-30.08L55.84-30.08Q54.40-30.08 53.44-29.18L53.44-29.18L53.44-29.18Q52.48-28.29 51.71-26.56ZM94.46-2.69L94.46-2.69L94.46-2.69Q91.39 1.28 83.78 1.28L83.78 1.28L83.78 1.28Q79.81 1.28 76.93-1.12L76.93-1.12L76.93-1.12Q74.05-3.52 74.05-6.98L74.05-6.98L74.05-6.98Q74.05-8.90 74.24-9.86L74.24-9.86L78.53-32.64L91.52-33.92L86.85-9.22L86.85-9.22Q86.59-7.81 86.59-6.98L86.59-6.98L86.59-6.98Q86.59-3.26 88.83-3.26L88.83-3.26L88.83-3.26Q91.33-3.26 93.12-6.66L93.12-6.66L93.12-6.66Q93.70-7.74 93.95-9.15L93.95-9.15L98.50-32.64L111.10-33.92L106.37-8.96L106.37-8.96Q106.18-8 106.18-6.98L106.18-6.98L106.18-6.98Q106.18-5.95 106.75-4.83L106.75-4.83L106.75-4.83Q107.33-3.71 109.18-3.46L109.18-3.46L109.18-3.46Q108.80-1.92 107.46-0.90L107.46-0.90L107.46-0.90Q104.64 1.28 101.60 1.28L101.60 1.28L101.60 1.28Q98.56 1.28 96.77 0.19L96.77 0.19L96.77 0.19Q94.98-0.90 94.46-2.69ZM147.90-33.92L147.90-33.92L147.90-33.92Q150.21-33.92 152-33.41L152-33.41L152-33.41Q152.06-33.66 152.19-34.37L152.19-34.37L152.51-36.35L152.51-36.35Q152.77-37.63 153.15-39.74L153.15-39.74L154.18-44.80L166.91-46.08L159.81-8.96L159.81-8.96Q159.74-8.58 159.74-7.94L159.74-7.94L159.74-6.91L159.74-6.91Q159.74-5.50 160.45-4.45L160.45-4.45L160.45-4.45Q161.15-3.39 162.30-3.39L162.30-3.39L162.30-3.39Q161.02-0.38 157.12 0.90L157.12 0.90L157.12 0.90Q155.78 1.28 153.89 1.28L153.89 1.28L153.89 1.28Q152 1.28 150.27 0.29L150.27 0.29L150.27 0.29Q148.54-0.70 148.03-2.37L148.03-2.37L148.03-2.37Q147.01-0.70 144.96 0.29L144.96 0.29L144.96 0.29Q142.91 1.28 139.94 1.28L139.94 1.28L139.94 1.28Q136.96 1.28 134.50 0.51L134.50 0.51L134.50 0.51Q132.03-0.26 130.50-1.92L130.50-1.92L130.50-1.92Q127.68-5.18 127.68-12.61L127.68-12.61L127.68-12.61Q127.68-22.21 133.31-28.03L133.31-28.03L133.31-28.03Q138.94-33.92 147.90-33.92ZM147.46-30.08L147.46-30.08L147.46-30.08Q145.09-30.08 143.81-27.52L143.81-27.52L143.81-27.52Q142.53-24.96 141.22-18.62L141.22-18.62L141.22-18.62Q139.90-12.29 139.90-6.59L139.90-6.59L139.90-6.59Q139.90-2.69 142.21-2.69L142.21-2.69L142.21-2.69Q144.26-2.69 145.70-4.74L145.70-4.74L145.70-4.74Q147.14-6.78 147.71-10.18L147.71-10.18L151.17-28.93L151.17-28.93Q149.82-30.08 147.46-30.08ZM187.78-17.98L187.78-17.98L187.78-17.98Q190.08-22.08 190.08-26.24L190.08-26.24L190.08-26.24Q190.08-28.99 188.10-28.99L188.10-28.99L188.10-28.99Q186.56-28.99 184.96-26.37L184.96-26.37L184.96-26.37Q183.30-23.74 182.78-20.35L182.78-20.35L179.46 0L166.21 1.28L172.74-32.64L183.30-33.92L182.14-27.46L182.14-27.46Q185.28-33.92 192.32-33.92L192.32-33.92L192.32-33.92Q196.03-33.92 198.05-32L198.05-32L198.05-32Q200.06-30.08 200.06-26.14L200.06-26.14L200.06-26.14Q200.06-22.21 197.47-19.71L197.47-19.71L197.47-19.71Q194.88-17.22 190.46-17.22L190.46-17.22L190.46-17.22Q188.54-17.22 187.78-17.98ZM227.01-10.82L227.01-10.82L227.01-10.82Q228.61-9.73 228.61-7.33L228.61-7.33L228.61-7.33Q228.61-4.93 227.39-3.39L227.39-3.39L227.39-3.39Q226.18-1.86 224.19-0.83L224.19-0.83L224.19-0.83Q220.10 1.28 215.68 1.28L215.68 1.28L215.68 1.28Q211.26 1.28 208.67 0.32L208.67 0.32L208.67 0.32Q206.08-0.64 204.35-2.43L204.35-2.43L204.35-2.43Q200.96-5.82 200.96-12.03L200.96-12.03L200.96-12.03Q200.96-21.70 206.21-27.58L206.21-27.58L206.21-27.58Q211.84-33.92 221.63-33.92L221.63-33.92L221.63-33.92Q227.71-33.92 230.72-31.36L230.72-31.36L230.72-31.36Q232.96-29.44 232.96-26.30L232.96-26.30L232.96-26.30Q232.96-15.04 213.50-15.04L213.50-15.04L213.50-15.04Q213.25-13.38 213.25-11.97L213.25-11.97L213.25-11.97Q213.25-9.02 214.56-7.90L214.56-7.90L214.56-7.90Q215.87-6.78 218.30-6.78L218.30-6.78L218.30-6.78Q220.74-6.78 223.33-7.90L223.33-7.90L223.33-7.90Q225.92-9.02 227.01-10.82ZM213.95-17.79L213.95-17.79L213.95-17.79Q218.50-17.79 221.12-20.61L221.12-20.61L221.12-20.61Q223.74-23.30 223.74-27.58L223.74-27.58L223.74-27.58Q223.74-29.06 223.20-29.86L223.20-29.86L223.20-29.86Q222.66-30.66 221.57-30.66L221.57-30.66L221.57-30.66Q220.48-30.66 219.55-30.24L219.55-30.24L219.55-30.24Q218.62-29.82 217.66-28.42L217.66-28.42L217.66-28.42Q215.30-25.22 213.95-17.79ZM282.88-10.69L282.88-10.69Q278.66-4.86 274.59-1.79L274.59-1.79L274.59-1.79Q270.53 1.28 266.34 1.28L266.34 1.28L266.34 1.28Q262.14 1.28 260.67 0.45L260.67 0.45L260.67-13.63L260.67-13.63Q257.02-3.90 250.50-0.13L250.50-0.13L250.50-0.13Q248.13 1.28 245.89 1.28L245.89 1.28L245.89 1.28Q241.60 1.28 239.74 0.45L239.74 0.45L239.74 0.45Q239.30-14.21 238.91-18.27L238.91-18.27L238.91-18.27Q238.53-22.34 238.21-24.83L238.21-24.83L238.21-24.83Q237.57-29.82 235.39-31.87L235.39-31.87L235.39-31.87Q238.14-33.92 241.98-33.92L241.98-33.92L241.98-33.92Q249.41-33.92 250.43-24.70L250.43-24.70L250.43-24.70Q250.69-22.53 250.69-20.22L250.69-20.22L250.69-20.22Q250.69-16.77 249.92-4.74L249.92-4.74L249.92-4.74Q251.46-5.44 253.09-7.97L253.09-7.97L253.09-7.97Q254.72-10.50 256.06-13.95L256.06-13.95L256.06-13.95Q259.07-21.95 259.07-28.86L259.07-28.86L259.07-28.86Q259.07-29.95 258.78-31.10L258.78-31.10L258.78-31.10Q258.50-32.26 258.18-32.58L258.18-32.58L258.18-32.58Q260.42-33.92 263.84-33.92L263.84-33.92L263.84-33.92Q267.26-33.92 268.90-31.58L268.90-31.58L268.90-31.58Q270.53-29.25 270.98-24.96L270.98-24.96L270.98-24.96Q271.49-19.52 271.49-16.26L271.49-16.26L271.49-16.26Q271.49-11.71 271.04-4.99L271.04-4.99L271.04-4.99Q274.24-7.30 276.86-14.85L276.86-14.85L276.86-14.85Q279.49-22.40 279.49-27.78L279.49-27.78L279.49-27.78Q279.49-30.14 279.10-31.55L279.10-31.55L279.10-31.55Q281.22-33.92 284.86-33.92L284.86-33.92L284.86-33.92Q287.10-33.92 288.74-32.70L288.74-32.70L288.74-32.70Q290.37-31.49 290.37-29.22L290.37-29.22L290.37-29.22Q290.37-26.94 289.70-24.51L289.70-24.51L289.70-24.51Q289.02-22.08 287.94-19.58L287.94-19.58L287.94-19.58Q285.82-14.59 282.88-10.69L282.88-10.69Z" fill="#ccc"></path></g></g><style>text {
  font-size: 64px;
  font-family: Arial Black;
  dominant-baseline: central;
  text-anchor: middle;
}</style></svg>