<svg width="348.7587646484375px" height="120.8099884033203px" xmlns="http://www.w3.org/2000/svg" viewBox="75.62061767578126 14.595005798339848 348.7587646484375 120.8099884033203" style="background: rgba(0, 0, 0, 0);" preserveAspectRatio="xMidYMid"><defs><filter id="editing-extrude-glow"><feFlood flood-color="#333333" result="flood-1"></feFlood><feMorphology operator="erode" radius="1" in="SourceAlpha" result="erode"></feMorphology><feComposite operator="in" in="flood-1" in2="erode" result="comp1"></feComposite><feConvolveMatrix order="3,3" divisor="1" in="comp1" result="convolve" kernelMatrix="0 0 0 1 1 1 0 0 0"></feConvolveMatrix><feOffset dx="-3" dy="0" in="convolve" result="extrude"></feOffset><feComposite operator="in" in="flood-1" in2="extrude" result="comp-extrude"></feComposite><feFlood flood-color="#000000" result="flood-2"></feFlood><feComposite operator="in" in="flood-2" in2="SourceAlpha" result="comp2"></feComposite><feMorphology operator="dilate" radius="1" in="comp2" result="dilate"></feMorphology><feOffset dx="-4.5" dy="0" in="dilate" result="offset"></feOffset><feGaussianBlur in="offset" stdDeviation="5.8" result="blur"></feGaussianBlur><feComponentTransfer in="blur" result="shadow"><feFuncA type="linear" slope="0.8" intercept="-0.2"></feFuncA></feComponentTransfer><feMerge><feMergeNode in="shadow"></feMergeNode><feMergeNode in="comp-extrude"></feMergeNode><feMergeNode in="SourceGraphic"></feMergeNode></feMerge></filter></defs><g filter="url(#editing-extrude-glow)"><g transform="translate(129.48343658447266, 98.68000030517578)"><path d="M7.17 0L10.88-18.82L10.88-18.82Q9.02-36.16 2.50-39.87L2.50-39.87L2.50-39.87Q3.84-41.54 6.02-42.46L6.02-42.46L6.02-42.46Q8.19-43.39 10.82-43.39L10.82-43.39L10.82-43.39Q13.44-43.39 15.42-42.46L15.42-42.46L15.42-42.46Q17.41-41.54 18.69-39.55L18.69-39.55L18.69-39.55Q21.12-35.78 21.12-26.75L21.12-26.75L21.12-22.14L21.12-22.14Q24.96-33.41 28.80-38.27L28.80-38.27L28.80-38.27Q32.70-43.26 37.57-43.26L37.57-43.26L37.57-43.26Q39.49-43.26 40.77-42.27L40.77-42.27L40.77-42.27Q42.05-41.28 42.69-39.81L42.69-39.81L42.69-39.81Q37.76-37.63 33.02-31.36L33.02-31.36L33.02-31.36Q28.29-25.09 25.22-16.32L25.22-16.32L21.44 0L7.17 0ZM50.05 1.28L50.05 1.28L50.05 1.28Q35.97 1.28 35.97-11.97L35.97-11.97L35.97-11.97Q35.97-21.38 41.15-27.46L41.15-27.46L41.15-27.46Q46.66-33.92 56.19-33.92L56.19-33.92L56.19-33.92Q63.10-33.92 66.62-30.72L66.62-30.72L66.62-30.72Q70.14-27.52 70.14-20.80L70.14-20.80L70.14-20.80Q70.14-10.56 64.64-4.61L64.64-4.61L64.64-4.61Q59.26 1.28 50.05 1.28ZM51.71-26.56L51.71-26.56L51.71-26.56Q50.94-24.83 50.34-22.24L50.34-22.24L50.34-22.24Q49.73-19.65 48.96-15.55L48.96-15.55L48.96-15.55Q48.19-11.46 48.19-6.40L48.19-6.40L48.19-6.40Q48.19-4.74 48.74-3.65L48.74-3.65L48.74-3.65Q49.28-2.56 50.75-2.56L50.75-2.56L50.75-2.56Q52.22-2.56 53.15-3.26L53.15-3.26L53.15-3.26Q54.08-3.97 54.78-5.63L54.78-5.63L54.78-5.63Q56.06-8.58 57.09-14.05L57.09-14.05L57.09-14.05Q58.11-19.52 58.21-21.89L58.21-21.89L58.21-21.89Q58.30-24.26 58.30-26.02L58.30-26.02L58.30-26.02Q58.30-27.78 57.79-28.93L57.79-28.93L57.79-28.93Q57.28-30.08 55.84-30.08L55.84-30.08L55.84-30.08Q54.40-30.08 53.44-29.18L53.44-29.18L53.44-29.18Q52.48-28.29 51.71-26.56ZM94.46-2.69L94.46-2.69L94.46-2.69Q91.39 1.28 83.78 1.28L83.78 1.28L83.78 1.28Q79.81 1.28 76.93-1.12L76.93-1.12L76.93-1.12Q74.05-3.52 74.05-6.98L74.05-6.98L74.05-6.98Q74.05-8.90 74.24-9.86L74.24-9.86L78.53-32.64L91.52-33.92L86.85-9.22L86.85-9.22Q86.59-7.81 86.59-6.98L86.59-6.98L86.59-6.98Q86.59-3.26 88.83-3.26L88.83-3.26L88.83-3.26Q91.33-3.26 93.12-6.66L93.12-6.66L93.12-6.66Q93.70-7.74 93.95-9.15L93.95-9.15L98.50-32.64L111.10-33.92L106.37-8.96L106.37-8.96Q106.18-8 106.18-6.98L106.18-6.98L106.18-6.98Q106.18-5.95 106.75-4.83L106.75-4.83L106.75-4.83Q107.33-3.71 109.18-3.46L109.18-3.46L109.18-3.46Q108.80-1.92 107.46-0.90L107.46-0.90L107.46-0.90Q104.64 1.28 101.60 1.28L101.60 1.28L101.60 1.28Q98.56 1.28 96.77 0.19L96.77 0.19L96.77 0.19Q94.98-0.90 94.46-2.69ZM143.04-3.52L143.04-3.52L143.04-3.52Q141.06 1.28 134.72 1.28L134.72 1.28L134.72 1.28Q131.52 1.28 129.47-0.96L129.47-0.96L129.47-0.96Q127.81-2.82 127.81-4.93L127.81-4.93L127.81-4.93Q127.81-9.73 130.05-20.22L130.05-20.22L134.72-44.80L147.71-46.08L141.50-13.70L141.50-13.70Q140.42-8.96 140.42-7.30L140.42-7.30L140.42-7.30Q140.42-3.65 143.04-3.52ZM162.43 1.28L162.43 1.28L162.43 1.28Q148.35 1.28 148.35-11.97L148.35-11.97L148.35-11.97Q148.35-21.38 153.54-27.46L153.54-27.46L153.54-27.46Q159.04-33.92 168.58-33.92L168.58-33.92L168.58-33.92Q175.49-33.92 179.01-30.72L179.01-30.72L179.01-30.72Q182.53-27.52 182.53-20.80L182.53-20.80L182.53-20.80Q182.53-10.56 177.02-4.61L177.02-4.61L177.02-4.61Q171.65 1.28 162.43 1.28ZM164.10-26.56L164.10-26.56L164.10-26.56Q163.33-24.83 162.72-22.24L162.72-22.24L162.72-22.24Q162.11-19.65 161.34-15.55L161.34-15.55L161.34-15.55Q160.58-11.46 160.58-6.40L160.58-6.40L160.58-6.40Q160.58-4.74 161.12-3.65L161.12-3.65L161.12-3.65Q161.66-2.56 163.14-2.56L163.14-2.56L163.14-2.56Q164.61-2.56 165.54-3.26L165.54-3.26L165.54-3.26Q166.46-3.97 167.17-5.63L167.17-5.63L167.17-5.63Q168.45-8.58 169.47-14.05L169.47-14.05L169.47-14.05Q170.50-19.52 170.59-21.89L170.59-21.89L170.59-21.89Q170.69-24.26 170.69-26.02L170.69-26.02L170.69-26.02Q170.69-27.78 170.18-28.93L170.18-28.93L170.18-28.93Q169.66-30.08 168.22-30.08L168.22-30.08L168.22-30.08Q166.78-30.08 165.82-29.18L165.82-29.18L165.82-29.18Q164.86-28.29 164.10-26.56ZM205.44-22.46L205.44-22.46L205.44-22.46Q206.34-24.83 206.34-26.88L206.34-26.88L206.34-26.88Q206.34-30.66 203.26-30.66L203.26-30.66L203.26-30.66Q201.66-30.66 200.35-29.22L200.35-29.22L200.35-29.22Q199.04-27.78 199.04-25.98L199.04-25.98L199.04-25.98Q199.04-24.70 200.06-23.68L200.06-23.68L200.06-23.68Q201.54-22.27 205.31-19.97L205.31-19.97L205.31-19.97Q209.09-17.66 210.53-15.78L210.53-15.78L210.53-15.78Q211.97-13.89 211.97-11.30L211.97-11.30L211.97-11.30Q211.97-8.70 210.72-6.34L210.72-6.34L210.72-6.34Q209.47-3.97 207.23-2.30L207.23-2.30L207.23-2.30Q202.43 1.28 194.75 1.28L194.75 1.28L194.75 1.28Q190.59 1.28 187.39-0.90L187.39-0.90L187.39-0.90Q184.19-3.01 184.19-5.50L184.19-5.50L184.19-5.50Q184.19-8 186.02-9.47L186.02-9.47L186.02-9.47Q187.84-10.94 190.53-10.94L190.53-10.94L190.53-10.94Q193.22-10.94 194.88-9.92L194.88-9.92L194.88-9.92Q194.05-7.81 194.05-6.40L194.05-6.40L194.05-6.40Q194.05-2.18 197.63-2.18L197.63-2.18L197.63-2.18Q199.17-2.18 200.19-3.14L200.19-3.14L200.19-3.14Q201.22-4.10 201.22-5.76L201.22-5.76L201.22-5.76Q201.22-9.02 195.71-12.48L195.71-12.48L195.71-12.48Q191.23-15.42 190.21-16.58L190.21-16.58L190.21-16.58Q188.48-18.62 188.48-21.18L188.48-21.18L188.48-21.18Q188.48-23.74 189.70-26.18L189.70-26.18L189.70-26.18Q190.91-28.61 193.15-30.34L193.15-30.34L193.15-30.34Q197.82-33.92 205.95-33.92L205.95-33.92L205.95-33.92Q210.11-33.92 212.58-32.26L212.58-32.26L212.58-32.26Q215.04-30.59 215.04-27.78L215.04-27.78L215.04-27.78Q215.04-24.96 213.34-23.36L213.34-23.36L213.34-23.36Q211.65-21.76 208.58-21.76L208.58-21.76L208.58-21.76Q206.46-21.76 205.44-22.46ZM218.43-6.40L218.43-6.40L218.43-6.40Q218.43-8.13 219.33-12.48L219.33-12.48L222.72-29.76L218.94-29.76L219.20-31.68L219.20-31.68Q226.88-33.98 234.30-39.62L234.30-39.62L237.38-39.62L235.84-32.64L240.83-32.64L240.26-29.76L235.33-29.76L232.06-12.48L232.06-12.48Q231.23-8.51 231.23-7.17L231.23-7.17L231.23-7.17Q231.23-4.10 233.92-3.46L233.92-3.46L233.92-3.46Q233.28-1.28 230.98 0L230.98 0L230.98 0Q228.67 1.28 225.41 1.28L225.41 1.28L225.41 1.28Q222.14 1.28 220.29-0.77L220.29-0.77L220.29-0.77Q218.43-2.82 218.43-6.40Z" fill="#eb6c6c"></path></g></g><style>text {
  font-size: 64px;
  font-family: Arial Black;
  dominant-baseline: central;
  text-anchor: middle;
}</style></svg>