<svg width="375.72499999999997px" height="120.80984191894531px" xmlns="http://www.w3.org/2000/svg" viewBox="62.13750000000002 14.595079040527345 375.72499999999997 120.80984191894531" style="background: rgba(0, 0, 0, 0);" preserveAspectRatio="xMidYMid"><defs><linearGradient id="editing-rainbow-gradient" x1="0" x2="1" y1="0.5" y2="0.5" gradientUnits="objectBoundingBox"><stop offset="0.00" stop-color="#f00"></stop><stop offset="0.17" stop-color="#f90"></stop><stop offset="0.34" stop-color="#ff4"></stop><stop offset="0.51" stop-color="#9f0"></stop><stop offset="0.68" stop-color="#09f"></stop><stop offset="0.85" stop-color="#00f"></stop><stop offset="1.00" stop-color="#90f"></stop></linearGradient><filter id="editing-rainbow" x="-100%" y="-100%" width="300%" height="300%"><feMorphology operator="dilate" radius="1,2" in="SourceGraphic" result="dilate"></feMorphology><feColorMatrix in="dilate" result="color" type="matrix" values="0.7 0 0 0 0  0 0.7 0 0 0  0 0 0.7 0 0  0 0 0 1 0"></feColorMatrix><feOffset dy="2" result="offset"></feOffset><feGaussianBlur stdDeviation="3"></feGaussianBlur><feOffset dy="3"></feOffset><feColorMatrix result="blur" type="matrix" values="0.7 0 0 0 0  0 0.7 0 0 0  0 0 0.7 0 0  0 0 0 1 0"></feColorMatrix><feMerge><feMergeNode in="blur"></feMergeNode><feMergeNode in="offset"></feMergeNode><feMergeNode in="SourceGraphic"></feMergeNode></feMerge></filter></defs><g filter="url(#editing-rainbow)"><g transform="translate(119.97999572753906, 97.33499908447266)"><path d="M7.17 0L10.88-18.82L10.88-18.82Q9.02-36.16 2.50-39.87L2.50-39.87L2.50-39.87Q3.84-41.54 6.02-42.46L6.02-42.46L6.02-42.46Q8.19-43.39 10.82-43.39L10.82-43.39L10.82-43.39Q13.44-43.39 15.42-42.46L15.42-42.46L15.42-42.46Q17.41-41.54 18.69-39.55L18.69-39.55L18.69-39.55Q21.12-35.78 21.12-26.75L21.12-26.75L21.12-22.14L21.12-22.14Q24.96-33.41 28.80-38.27L28.80-38.27L28.80-38.27Q32.70-43.26 37.57-43.26L37.57-43.26L37.57-43.26Q39.49-43.26 40.77-42.27L40.77-42.27L40.77-42.27Q42.05-41.28 42.69-39.81L42.69-39.81L42.69-39.81Q37.76-37.63 33.02-31.36L33.02-31.36L33.02-31.36Q28.29-25.09 25.22-16.32L25.22-16.32L21.44 0L7.17 0ZM50.05 1.28L50.05 1.28L50.05 1.28Q35.97 1.28 35.97-11.97L35.97-11.97L35.97-11.97Q35.97-21.38 41.15-27.46L41.15-27.46L41.15-27.46Q46.66-33.92 56.19-33.92L56.19-33.92L56.19-33.92Q63.10-33.92 66.62-30.72L66.62-30.72L66.62-30.72Q70.14-27.52 70.14-20.80L70.14-20.80L70.14-20.80Q70.14-10.56 64.64-4.61L64.64-4.61L64.64-4.61Q59.26 1.28 50.05 1.28ZM51.71-26.56L51.71-26.56L51.71-26.56Q50.94-24.83 50.34-22.24L50.34-22.24L50.34-22.24Q49.73-19.65 48.96-15.55L48.96-15.55L48.96-15.55Q48.19-11.46 48.19-6.40L48.19-6.40L48.19-6.40Q48.19-4.74 48.74-3.65L48.74-3.65L48.74-3.65Q49.28-2.56 50.75-2.56L50.75-2.56L50.75-2.56Q52.22-2.56 53.15-3.26L53.15-3.26L53.15-3.26Q54.08-3.97 54.78-5.63L54.78-5.63L54.78-5.63Q56.06-8.58 57.09-14.05L57.09-14.05L57.09-14.05Q58.11-19.52 58.21-21.89L58.21-21.89L58.21-21.89Q58.30-24.26 58.30-26.02L58.30-26.02L58.30-26.02Q58.30-27.78 57.79-28.93L57.79-28.93L57.79-28.93Q57.28-30.08 55.84-30.08L55.84-30.08L55.84-30.08Q54.40-30.08 53.44-29.18L53.44-29.18L53.44-29.18Q52.48-28.29 51.71-26.56ZM94.46-2.69L94.46-2.69L94.46-2.69Q91.39 1.28 83.78 1.28L83.78 1.28L83.78 1.28Q79.81 1.28 76.93-1.12L76.93-1.12L76.93-1.12Q74.05-3.52 74.05-6.98L74.05-6.98L74.05-6.98Q74.05-8.90 74.24-9.86L74.24-9.86L78.53-32.64L91.52-33.92L86.85-9.22L86.85-9.22Q86.59-7.81 86.59-6.98L86.59-6.98L86.59-6.98Q86.59-3.26 88.83-3.26L88.83-3.26L88.83-3.26Q91.33-3.26 93.12-6.66L93.12-6.66L93.12-6.66Q93.70-7.74 93.95-9.15L93.95-9.15L98.50-32.64L111.10-33.92L106.37-8.96L106.37-8.96Q106.18-8 106.18-6.98L106.18-6.98L106.18-6.98Q106.18-5.95 106.75-4.83L106.75-4.83L106.75-4.83Q107.33-3.71 109.18-3.46L109.18-3.46L109.18-3.46Q108.80-1.92 107.46-0.90L107.46-0.90L107.46-0.90Q104.64 1.28 101.60 1.28L101.60 1.28L101.60 1.28Q98.56 1.28 96.77 0.19L96.77 0.19L96.77 0.19Q94.98-0.90 94.46-2.69ZM175.49-10.69L175.49-10.69Q171.26-4.86 167.20-1.79L167.20-1.79L167.20-1.79Q163.14 1.28 158.94 1.28L158.94 1.28L158.94 1.28Q154.75 1.28 153.28 0.45L153.28 0.45L153.28-13.63L153.28-13.63Q149.63-3.90 143.10-0.13L143.10-0.13L143.10-0.13Q140.74 1.28 138.50 1.28L138.50 1.28L138.50 1.28Q134.21 1.28 132.35 0.45L132.35 0.45L132.35 0.45Q131.90-14.21 131.52-18.27L131.52-18.27L131.52-18.27Q131.14-22.34 130.82-24.83L130.82-24.83L130.82-24.83Q130.18-29.82 128.00-31.87L128.00-31.87L128.00-31.87Q130.75-33.92 134.59-33.92L134.59-33.92L134.59-33.92Q142.02-33.92 143.04-24.70L143.04-24.70L143.04-24.70Q143.30-22.53 143.30-20.22L143.30-20.22L143.30-20.22Q143.30-16.77 142.53-4.74L142.53-4.74L142.53-4.74Q144.06-5.44 145.70-7.97L145.70-7.97L145.70-7.97Q147.33-10.50 148.67-13.95L148.67-13.95L148.67-13.95Q151.68-21.95 151.68-28.86L151.68-28.86L151.68-28.86Q151.68-29.95 151.39-31.10L151.39-31.10L151.39-31.10Q151.10-32.26 150.78-32.58L150.78-32.58L150.78-32.58Q153.02-33.92 156.45-33.92L156.45-33.92L156.45-33.92Q159.87-33.92 161.50-31.58L161.50-31.58L161.50-31.58Q163.14-29.25 163.58-24.96L163.58-24.96L163.58-24.96Q164.10-19.52 164.10-16.26L164.10-16.26L164.10-16.26Q164.10-11.71 163.65-4.99L163.65-4.99L163.65-4.99Q166.85-7.30 169.47-14.85L169.47-14.85L169.47-14.85Q172.10-22.40 172.10-27.78L172.10-27.78L172.10-27.78Q172.10-30.14 171.71-31.55L171.71-31.55L171.71-31.55Q173.82-33.92 177.47-33.92L177.47-33.92L177.47-33.92Q179.71-33.92 181.34-32.70L181.34-32.70L181.34-32.70Q182.98-31.49 182.98-29.22L182.98-29.22L182.98-29.22Q182.98-26.94 182.30-24.51L182.30-24.51L182.30-24.51Q181.63-22.08 180.54-19.58L180.54-19.58L180.54-19.58Q178.43-14.59 175.49-10.69L175.49-10.69ZM198.66 1.28L198.66 1.28L198.66 1.28Q184.58 1.28 184.58-11.97L184.58-11.97L184.58-11.97Q184.58-21.38 189.76-27.46L189.76-27.46L189.76-27.46Q195.26-33.92 204.80-33.92L204.80-33.92L204.80-33.92Q211.71-33.92 215.23-30.72L215.23-30.72L215.23-30.72Q218.75-27.52 218.75-20.80L218.75-20.80L218.75-20.80Q218.75-10.56 213.25-4.61L213.25-4.61L213.25-4.61Q207.87 1.28 198.66 1.28ZM200.32-26.56L200.32-26.56L200.32-26.56Q199.55-24.83 198.94-22.24L198.94-22.24L198.94-22.24Q198.34-19.65 197.57-15.55L197.57-15.55L197.57-15.55Q196.80-11.46 196.80-6.40L196.80-6.40L196.80-6.40Q196.80-4.74 197.34-3.65L197.34-3.65L197.34-3.65Q197.89-2.56 199.36-2.56L199.36-2.56L199.36-2.56Q200.83-2.56 201.76-3.26L201.76-3.26L201.76-3.26Q202.69-3.97 203.39-5.63L203.39-5.63L203.39-5.63Q204.67-8.58 205.70-14.05L205.70-14.05L205.70-14.05Q206.72-19.52 206.82-21.89L206.82-21.89L206.82-21.89Q206.91-24.26 206.91-26.02L206.91-26.02L206.91-26.02Q206.91-27.78 206.40-28.93L206.40-28.93L206.40-28.93Q205.89-30.08 204.45-30.08L204.45-30.08L204.45-30.08Q203.01-30.08 202.05-29.18L202.05-29.18L202.05-29.18Q201.09-28.29 200.32-26.56ZM249.60 1.28L249.60 1.28L249.60 1.28Q241.86 1.28 241.86-4.74L241.86-4.74L241.86-4.74Q241.92-6.40 242.43-9.22L242.43-9.22L243.58-15.10L243.58-15.10Q245.31-23.42 245.31-25.28L245.31-25.28L245.31-25.28Q245.31-28.99 243.14-28.99L243.14-28.99L243.14-28.99Q239.49-28.99 237.57-19.46L237.57-19.46L233.79 0L220.93 1.28L227.58-32.70L238.08-33.92L237.06-27.65L237.06-27.65Q240.06-33.92 249.28-33.92L249.28-33.92L249.28-33.92Q253.76-33.92 255.65-32.03L255.65-32.03L255.65-32.03Q257.54-30.14 257.54-25.92L257.54-25.92L257.54-25.92Q257.54-21.95 255.49-12.67L255.49-12.67L255.49-12.67Q254.53-8.51 254.53-6.94L254.53-6.94L254.53-6.94Q254.53-5.38 255.39-4.48L255.39-4.48L255.39-4.48Q256.26-3.58 257.54-3.46L257.54-3.46L257.54-3.46Q256.90-1.28 254.69 0L254.69 0L254.69 0Q252.48 1.28 249.60 1.28Z" fill="url(#editing-rainbow-gradient)"></path></g></g><style>text {
  font-size: 64px;
  font-family: Arial Black;
  dominant-baseline: central;
  text-anchor: middle;
}</style></svg>